<?xml version="1.0" encoding="UTF-8"?>
<svg id="Layer_2" data-name="Layer 2" xmlns="http://www.w3.org/2000/svg" viewBox="0 0 613.93 142.99">
  <defs>
    <style>
      .cls-1 {
        fill: #063;
      }
    </style>
  </defs>
  <g id="Capa_1" data-name="Capa 1">
    <g>
      <path class="cls-1" d="M589.33,54.52c0-3.24.08-6.48-.03-9.71-.07-2,.64-2.69,2.53-2.66,6.44.08,12.89.12,19.33-.02,2.21-.05,2.78.67,2.77,2.95-.08,17.68-.05,35.36-.05,53.04,0,13.42-.06,26.85.05,40.27.02,2.43-.56,3.17-2.92,3.1-6.02-.18-12.06-.26-18.08.03-3.19.16-3.7-1.07-3.68-4.07.14-14.95.13-29.9.04-44.85-.09-14.6-8.64-25.71-21.79-28.09-10.68-1.93-19.64,1.78-26.13,10.77-6.28,8.71-7.3,18.56-2.63,28.38,4.83,10.16,12.88,15.72,23.94,15.88,2.71.04,5.47-.03,7.97-1.17,1.94-.88,2.61.23,3.34,1.63,2.31,4.39,4.51,8.85,7,13.13,1.13,1.94.58,2.87-.98,3.89-4.85,3.16-10.09,5.15-15.76,5.68-25.62,2.38-47.82-15.21-52.77-41.74-5.1-27.34,13.97-55.61,40.09-59.58,14.55-2.21,27.21,1.12,36.98,13.53.25-.13.51-.25.76-.38Z"/>
      <path class="cls-1" d="M158.66,83.37c11.24,0,21.82,0,32.41,0,3.48,0,3.57-.17,2.08-3.61-5.03-11.62-15.67-17.69-26.81-15.3-11.41,2.45-19.81,13.09-20.07,25.82-.25,12.29,5.09,21.36,15.32,27.1,8,4.49,19.3,2.37,25.82-4.57.95-1.02,1.65-1.29,2.92-.69,6.61,3.15,13.26,6.2,20.11,9.39-6.8,10.09-15.82,16.49-26.9,19.66-25.27,7.23-51.09-7.68-59.33-34.14-7.8-25.07,5.13-53.06,29.02-62.83,30.15-12.33,63.23,9.33,66.12,43.25.39,4.61.11,9.12-.61,13.66-.27,1.75-.96,2.34-2.64,2.33-14.54-.06-29.09-.04-43.63-.07-.88,0-1.83.24-2.48-.86-3.63-6.2-7.32-12.37-11.34-19.15Z"/>
      <path class="cls-1" d="M348.7,142.85c-26.72-.06-48.77-23.11-48.75-50.98.02-28.05,22.17-51.19,48.95-51.13,26.87.06,48.7,23.1,48.62,51.33-.08,27.97-22.07,50.84-48.83,50.78ZM371.64,89.64c.17-3.12-.94-7.73-2.98-12.1-7.33-15.75-24.9-18.68-36.05-6.04-10.5,11.91-8.67,33.78,3.64,43.58,7.85,6.25,18.04,6.13,25.56-.55,6.76-6,9.72-13.9,9.83-24.89Z"/>
      <path class="cls-1" d="M139.03.43c-23.17,47.28-46.27,94.43-69.68,142.2-3.43-6.93-6.57-13.27-9.7-19.62-1.81-3.68-3.44-7.47-5.43-11.03-1.22-2.17-1.06-3.89,0-6.04C71.19,71.46,88.1,36.96,105,2.44c.72-1.46,1.43-2.45,3.24-2.43,9.87.08,19.74.04,29.61.06.28,0,.55.16,1.19.36Z"/>
      <path class="cls-1" d="M254.75,54.8c3-2.54,4.79-5.23,7.34-7.07,12.33-8.93,25.48-8.63,38.98-3.78,5.11,1.83,5.03,2,2.42,6.85-2.56,4.75-5.19,9.45-7.57,14.3-1.05,2.13-1.92,2.37-4.04,1.39-14.31-6.62-30.17.24-35.78,15.31-.95,2.57-1.38,5.22-1.37,7.99.03,16.15-.04,32.3.07,48.45.02,2.63-.74,3.3-3.16,3.23-6.54-.17-13.09-.12-19.64-.02-1.96.03-2.69-.47-2.69-2.71.07-31.21.06-62.41,0-93.62,0-2.21.51-3.06,2.76-3.01,6.65.15,13.3.15,19.95,0,2.26-.05,2.85.81,2.74,3.01-.15,2.99-.04,5.99-.04,9.67Z"/>
      <path class="cls-1" d="M476.27,110.11c0-8.73,0-17.45,0-26.18,0-2.74-.29-5.44-.92-8.09-1.55-6.52-5.53-10.41-11.83-11.36-5.39-.82-10.81-.84-15.93,1.52-1.73.8-2.57.43-3.43-1.26-2.15-4.23-4.33-8.46-6.75-12.51-1.15-1.93-.56-2.94.85-4.03,4.67-3.63,9.83-6.13,15.61-6.91,10.17-1.36,20.17-.68,29.47,4.27,10.47,5.56,15.03,15.45,17.07,26.99,1.16,6.57,1.35,13.22,1.35,19.88,0,15.06-.05,30.11.06,45.17.02,2.82-.51,4.04-3.55,3.91-6.12-.27-12.26-.26-18.38,0-3.02.13-3.59-1.04-3.54-3.9.15-9.16.06-18.33.06-27.49-.05,0-.09,0-.14,0Z"/>
      <path class="cls-1" d="M431.22,91.75c0,15.49-.04,30.99.04,46.48.01,2.29-.38,3.31-2.86,3.25-6.65-.17-13.3-.13-19.95-.01-2.03.03-2.66-.62-2.65-2.78.06-31.2.06-62.41,0-93.62,0-2.33.73-2.99,2.86-2.95,6.54.12,13.09.15,19.63,0,2.35-.06,3,.71,2.99,3.15-.09,15.49-.05,30.99-.05,46.48h-.01Z"/>
      <path class="cls-1" d="M41.01,84.86c-4.28-8.73-8.55-17.42-12.81-26.12C19.13,40.24,10.07,21.75,1,3.25-.56.07-.56.05,2.91.05,11.94.04,20.97.09,30,0c1.79-.02,2.79.56,3.63,2.27,7.67,15.7,15.42,31.35,23.17,47.01.6,1.21.96,2.27.28,3.66-5.17,10.44-10.26,20.91-15.4,31.37-.09.17-.32.27-.67.55Z"/>
    </g>
  </g>
</svg>